<svg width="45" height="43" viewBox="0 0 45 43" fill="none" xmlns="http://www.w3.org/2000/svg">
<g clip-path="url(#clip0_225_1711)">
<path d="M31.6666 20L22.4999 10.8775L13.3333 20V2.5C13.3333 1.83696 13.5966 1.20107 14.0655 0.732233C14.5343 0.263392 15.1702 0 15.8333 0L29.1666 0C29.8296 0 30.4655 0.263392 30.9344 0.732233C31.4032 1.20107 31.6666 1.83696 31.6666 2.5V20ZM22.4999 8.52667L29.9999 15.9875V2.5C29.9999 2.27899 29.9121 2.06702 29.7558 1.91074C29.5996 1.75446 29.3876 1.66667 29.1666 1.66667H15.8333C15.6122 1.66667 15.4003 1.75446 15.244 1.91074C15.0877 2.06702 14.9999 2.27899 14.9999 2.5V15.9875L22.4999 8.52667Z" fill="#464646"/>
</g>
<path d="M1.88588 34.168C3.67388 33.988 5.28188 33.304 5.92988 32.236C6.56588 33.304 8.18588 33.988 9.96188 34.168L10.2739 33.412C8.35388 33.256 6.61388 32.404 6.50588 31.312H9.91388V30.532H1.94588V31.312H5.34188C5.23388 32.416 3.48188 33.244 1.57388 33.412L1.88588 34.168ZM3.21788 38.932H9.54188V36.472H2.22188V37.228H8.56988V38.212H2.25788V40.768H9.86588V40.012H3.21788V38.932ZM1.04588 34.708V35.5H10.7899V34.708H1.04588ZM19.9689 30.112V33.076H17.3409C17.4489 32.5 17.5089 31.9 17.5089 31.288H12.5649V32.08H16.5249C16.3329 34.612 14.9289 36.676 12.0969 38.068L12.6129 38.86C15.1329 37.612 16.5369 35.872 17.1489 33.868H19.9689V35.956H16.9929V36.76H19.9689V40.876H20.9529V30.112H19.9689ZM29.436 35.284C27.852 34.828 26.808 33.652 26.808 32.356V32.176H29.184V31.384H26.808V30.076H25.824V31.384H23.436V32.176H25.824V32.356C25.824 33.772 24.732 34.996 23.136 35.476L23.616 36.256C24.876 35.848 25.86 34.996 26.328 33.88C26.808 34.888 27.744 35.68 28.968 36.04L29.436 35.284ZM31.668 37.744V36.952H24.624V37.744H27.624C27.468 38.872 25.944 39.82 24.216 40.084L24.564 40.84C26.148 40.576 27.54 39.82 28.14 38.74C28.752 39.808 30.156 40.588 31.716 40.852L32.088 40.096C30.36 39.82 28.836 38.848 28.656 37.744H31.668ZM31.488 32.788V30.136H30.504V36.376H31.488V33.604H33.084V32.788H31.488ZM34.8111 31.288V32.08H38.8551C38.6511 34.636 37.2111 36.7 34.3191 38.08L34.8471 38.884C38.4231 37.132 39.8511 34.396 39.8511 31.288H34.8111ZM42.0231 30.124V40.888H43.0071V30.124H42.0231Z" fill="black"/>
<defs>
<clipPath id="clip0_225_1711">
<rect width="20" height="20" fill="white" transform="translate(12.5)"/>
</clipPath>
</defs>
</svg>
