<svg width="34" height="43" viewBox="0 0 34 43" fill="none" xmlns="http://www.w3.org/2000/svg">
<g clip-path="url(#clip0_225_1705)">
<path d="M8.43083 12.25L11.875 20H13.9217C14.3035 19.9998 14.6793 19.9042 15.0148 19.722C15.3504 19.5397 15.6351 19.2766 15.8432 18.9564C16.0513 18.6363 16.1762 18.2692 16.2065 17.8886C16.2368 17.5079 16.1715 17.1257 16.0167 16.7767L14.1158 12.5H16.1667C17.2713 12.5013 18.3304 12.9407 19.1115 13.7218C19.8926 14.503 20.332 15.562 20.3333 16.6667H22V0H20.3333C20.332 1.10466 19.8926 2.1637 19.1115 2.94482C18.3304 3.72593 17.2713 4.16534 16.1667 4.16667H9.5C8.83696 4.16667 8.20107 4.43006 7.73223 4.8989C7.26339 5.36774 7 6.00363 7 6.66667V10C7.00186 10.4718 7.13721 10.9335 7.39041 11.3317C7.64361 11.7298 8.00431 12.0482 8.43083 12.25V12.25ZM14.4933 17.4525C14.5359 17.5478 14.5539 17.6522 14.5457 17.7563C14.5376 17.8603 14.5036 17.9607 14.4468 18.0482C14.39 18.1357 14.3122 18.2077 14.2204 18.2575C14.1287 18.3073 14.026 18.3334 13.9217 18.3333H12.9583L10.3658 12.5H12.2917L14.4933 17.4525ZM8.66667 6.66667C8.66667 6.44565 8.75446 6.23369 8.91074 6.07741C9.06702 5.92113 9.27899 5.83333 9.5 5.83333H16.1667C16.9435 5.83351 17.7125 5.67793 18.4282 5.37577C19.1438 5.07361 19.7917 4.63102 20.3333 4.07417V12.5925C19.7917 12.0356 19.1438 11.5931 18.4282 11.2909C17.7125 10.9887 16.9435 10.8332 16.1667 10.8333H9.5C9.27899 10.8333 9.06702 10.7455 8.91074 10.5893C8.75446 10.433 8.66667 10.221 8.66667 10V6.66667ZM25.5775 13.0892L23.6708 11.1825L24.8492 10.0042L26.7558 11.9108L25.5775 13.0892ZM24.8808 6.63083L23.7025 5.4525L25.5775 3.5775L26.7558 4.75583L24.8808 6.63083ZM24.5 7.5H27V9.16667H24.5V7.5Z" fill="#464646"/>
</g>
<path d="M2.58941 31.432H1.60541V38.092H2.28941C3.45341 38.092 4.68941 38.032 6.14141 37.756L6.04541 36.904C4.76141 37.156 3.62141 37.228 2.58941 37.24V31.432ZM9.26141 30.124V34.504H7.73741V30.364H6.81341V40.336H7.73741V35.32H9.26141V40.876H10.2094V30.124H9.26141ZM15.2725 32.188H17.1925V31.384H12.2845V32.188H14.3245V33.16C14.3245 35.14 13.4845 37.096 11.9845 37.996L12.5845 38.728C13.6525 38.056 14.4325 36.796 14.8045 35.32C15.1765 36.688 15.9205 37.84 16.9645 38.464L17.5645 37.744C16.0765 36.904 15.2725 35.032 15.2725 33.16V32.188ZM18.1525 33.988H16.3765V34.792H18.1525V40.324H19.0885V30.364H18.1525V33.988ZM20.3125 30.112V40.876H21.2605V30.112H20.3125ZM25.2795 33.616H30.7755V35.596H25.2795V33.616ZM28.5195 38.704V36.388H31.7355V30.892H30.7755V32.812H25.2795V30.892H24.3075V36.388H27.5235V38.704H23.1555V39.508H32.9115V38.704H28.5195Z" fill="black"/>
<defs>
<clipPath id="clip0_225_1705">
<rect width="20" height="20" fill="white" transform="translate(7)"/>
</clipPath>
</defs>
</svg>
