<svg width="26" height="43" viewBox="0 0 26 43" fill="none" xmlns="http://www.w3.org/2000/svg">
<g clip-path="url(#clip0_225_1708)">
<path d="M22.1167 0.881921C21.5501 0.316252 20.7823 -0.00146484 19.9817 -0.00146484C19.1811 -0.00146484 18.4132 0.316252 17.8467 0.881921L3 15.7286V19.9986H7.27L22.1167 5.15192C22.6821 4.58527 22.9997 3.81745 22.9997 3.01692C22.9997 2.2164 22.6821 1.44857 22.1167 0.881921ZM6.58333 18.3319H4.66667V16.4153L15.7583 5.33192L17.675 7.24859L6.58333 18.3319ZM20.9383 3.97359L18.8492 6.06275L16.9367 4.14609L19.025 2.06025C19.2792 1.80609 19.6239 1.6633 19.9833 1.6633C20.3428 1.6633 20.6875 1.80609 20.9417 2.06025C21.1958 2.31442 21.3386 2.65914 21.3386 3.01859C21.3386 3.37803 21.1958 3.72276 20.9417 3.97692L20.9383 3.97359Z" fill="#464646"/>
</g>
<path d="M9.10544 30.088V40.936H10.0654V30.088H9.10544ZM7.28144 34.504V35.32H9.36944V34.504H7.28144ZM6.64544 30.328V40.384H7.58144V30.328H6.64544ZM1.38944 31.396V37.66H2.38544V31.396H1.38944ZM1.38944 37.264V38.128H2.08544C3.24944 38.128 4.49744 38.068 5.97344 37.78L5.86544 36.916C4.44944 37.192 3.20144 37.264 2.08544 37.264H1.38944ZM16.5355 30.544V31.348H23.5195V30.544H16.5355ZM15.2875 34.12V34.936H25.1155V34.12H15.2875ZM22.8715 30.544V31.24C22.8715 32.008 22.8715 32.944 22.5835 34.264L23.5555 34.372C23.8435 33.028 23.8435 32.02 23.8435 31.24V30.544H22.8715ZM16.4395 36.004V36.808H22.8955V37.996H16.4635V40.276H17.4595V38.764H23.8795V36.004H16.4395ZM16.4635 40.012V40.816H24.1555V40.012H16.4635Z" fill="black"/>
<defs>
<clipPath id="clip0_225_1708">
<rect width="20" height="20" fill="white" transform="translate(3)"/>
</clipPath>
</defs>
</svg>
