<svg width="45" height="43" viewBox="0 0 45 43" fill="none" xmlns="http://www.w3.org/2000/svg">
<g clip-path="url(#clip0_225_1714)">
<path d="M25.0003 20H20.0003V17.0725C19.1314 16.7651 18.3265 16.3001 17.6261 15.7008L15.0895 17.1667L12.5895 12.8333L15.1253 11.3708C14.9587 10.4645 14.9587 9.53546 15.1253 8.62917L12.5895 7.16667L15.0895 2.83333L17.6261 4.29917C18.3265 3.69994 19.1314 3.23495 20.0003 2.9275V0H25.0003V2.9275C25.8693 3.23495 26.6741 3.69994 27.3745 4.29917L29.9111 2.83333L32.4111 7.16667L29.8753 8.62917C30.0419 9.53546 30.0419 10.4645 29.8753 11.3708L32.4111 12.8333L29.9111 17.1667L27.3745 15.7017C26.674 16.3006 25.8692 16.7653 25.0003 17.0725V20ZM21.667 18.3333H23.3336V15.8108L23.9595 15.6492C24.9862 15.3832 25.9206 14.8418 26.662 14.0833L27.1145 13.6225L29.3003 14.885L30.1336 13.4417L27.9503 12.1808L28.122 11.5592C28.4042 10.5366 28.4042 9.45672 28.122 8.43417L27.9503 7.8125L30.1336 6.55167L29.3003 5.10833L27.1145 6.37417L26.662 5.91667C25.9202 5.15945 24.9858 4.61918 23.9595 4.35417L23.3336 4.18917V1.66667H21.667V4.18917L21.0411 4.35083C20.0145 4.61679 19.08 5.15824 18.3386 5.91667L17.8861 6.3775L15.7003 5.11167L14.867 6.555L17.0503 7.81583L16.8786 8.4375C16.5964 9.46005 16.5964 10.5399 16.8786 11.5625L17.0503 12.1842L14.867 13.445L15.7003 14.8883L17.8861 13.6258L18.3386 14.0867C19.0804 14.8439 20.0148 15.3841 21.0411 15.6492L21.667 15.8108V18.3333ZM22.5003 13.3333C21.841 13.3333 21.1966 13.1378 20.6484 12.7716C20.1002 12.4053 19.673 11.8847 19.4207 11.2756C19.1684 10.6665 19.1024 9.9963 19.231 9.3497C19.3596 8.7031 19.6771 8.10915 20.1433 7.64298C20.6095 7.1768 21.2034 6.85933 21.85 6.73072C22.4966 6.6021 23.1668 6.66811 23.7759 6.9204C24.385 7.17269 24.9056 7.59994 25.2719 8.1481C25.6381 8.69626 25.8336 9.34073 25.8336 10C25.8336 10.8841 25.4825 11.7319 24.8573 12.357C24.2322 12.9821 23.3844 13.3333 22.5003 13.3333ZM22.5003 8.33333C22.1707 8.33333 21.8484 8.43108 21.5744 8.61422C21.3003 8.79735 21.0867 9.05765 20.9605 9.36219C20.8344 9.66674 20.8014 10.0018 20.8657 10.3252C20.93 10.6485 21.0887 10.9454 21.3218 11.1785C21.5549 11.4116 21.8519 11.5703 22.1752 11.6346C22.4985 11.699 22.8336 11.6659 23.1381 11.5398C23.4427 11.4137 23.703 11.2 23.8861 10.926C24.0692 10.6519 24.167 10.3296 24.167 10C24.167 9.55797 23.9914 9.13405 23.6788 8.82149C23.3663 8.50893 22.9423 8.33333 22.5003 8.33333Z" fill="#464646"/>
</g>
<path d="M8.42588 30.088V38.584H9.42188V30.088H8.42588ZM9.00188 33.868V34.696H11.0059V33.868H9.00188ZM2.55788 39.88V40.696H9.80588V39.88H2.55788ZM2.55788 38.02V40.132H3.55388V38.02H2.55788ZM3.85388 35.392V36.868H4.84988V35.392H3.85388ZM1.08188 37.336C2.96588 37.324 5.56988 37.276 7.86188 36.856L7.77788 36.148C5.54588 36.496 2.86988 36.532 0.949875 36.532L1.08188 37.336ZM1.22588 31.144V31.9H7.45388V31.144H1.22588ZM4.34588 32.344C2.82188 32.344 1.81388 32.98 1.81388 34.012C1.81388 35.056 2.82188 35.692 4.34588 35.692C5.86988 35.692 6.86588 35.056 6.86588 34.012C6.86588 32.98 5.86988 32.344 4.34588 32.344ZM4.34588 33.052C5.30588 33.052 5.92988 33.424 5.92988 34.012C5.92988 34.612 5.30588 34.972 4.34588 34.972C3.37388 34.972 2.74988 34.612 2.74988 34.012C2.74988 33.424 3.37388 33.052 4.34588 33.052ZM3.85388 30.04V31.48H4.84988V30.04H3.85388ZM17.2449 32.08V32.896H20.1489V32.08H17.2449ZM17.1489 34.336V35.152H20.0769V34.336H17.1489ZM19.9809 30.088V36.592H20.9769V30.088H19.9809ZM16.5849 30.904V31.336C16.5849 33.388 14.9649 34.984 12.1929 35.788L12.6009 36.592C15.7209 35.656 17.6529 33.7 17.6529 30.904H16.5849ZM12.7569 30.904V31.72H17.2689V30.904H12.7569ZM17.4489 36.712C15.2529 36.712 13.8609 37.492 13.8609 38.8C13.8609 40.108 15.2529 40.888 17.4489 40.888C19.6449 40.888 21.0369 40.108 21.0369 38.8C21.0369 37.492 19.6449 36.712 17.4489 36.712ZM17.4489 37.492C19.0449 37.492 20.0649 37.984 20.0649 38.8C20.0649 39.616 19.0449 40.096 17.4489 40.096C15.8649 40.096 14.8449 39.616 14.8449 38.8C14.8449 37.984 15.8649 37.492 17.4489 37.492ZM28.668 32.044V32.872H31.44V32.044H28.668ZM31.02 30.088V35.68H32.016V30.088H31.02ZM25.032 36.244V37.036H31.032V38.092H25.068V40.48H26.04V38.836H32.016V36.244H25.032ZM25.068 40V40.792H32.424V40H25.068ZM25.8 30.424V31.444C25.8 33.016 24.72 34.372 23.088 34.924L23.604 35.716C25.416 35.068 26.616 33.448 26.616 31.444V30.424H25.8ZM25.968 30.424V31.444C25.968 33.28 27.168 34.84 28.92 35.464L29.436 34.684C27.864 34.168 26.772 32.86 26.772 31.444V30.424H25.968ZM39.9231 32.896V33.724H42.3711V32.896H39.9231ZM42.0591 30.088V36.556H43.0551V30.088H42.0591ZM39.4911 36.88C37.2471 36.88 35.8671 37.636 35.8671 38.908C35.8671 40.192 37.2471 40.924 39.4911 40.924C41.7231 40.924 43.1031 40.192 43.1031 38.908C43.1031 37.636 41.7231 36.88 39.4911 36.88ZM39.4911 37.66C41.1231 37.66 42.1191 38.116 42.1191 38.908C42.1191 39.688 41.1231 40.144 39.4911 40.144C37.8591 40.144 36.8631 39.688 36.8631 38.908C36.8631 38.116 37.8591 37.66 39.4911 37.66ZM36.8991 31.18V32.056C36.8991 33.616 35.7831 35.068 34.1751 35.656L34.6911 36.448C36.4911 35.776 37.7151 34.06 37.7151 32.056V31.18H36.8991ZM37.0911 31.18V32.056C37.0911 33.88 38.2551 35.512 40.0191 36.148L40.5231 35.356C38.9511 34.804 37.8951 33.46 37.8951 32.056V31.18H37.0911ZM34.4751 30.88V31.696H40.2711V30.88H34.4751Z" fill="black"/>
<defs>
<clipPath id="clip0_225_1714">
<rect width="20" height="20" fill="white" transform="translate(12.5)"/>
</clipPath>
</defs>
</svg>
