<svg width="61" height="81" viewBox="0 0 61 81" fill="none" xmlns="http://www.w3.org/2000/svg">
<circle cx="30.5" cy="20" r="20" fill="#F0F0F0"/>
<ellipse cx="30.5001" cy="26.7543" rx="8.59649" ry="4.29825" fill="#6AC47A" stroke="#6AC47A" stroke-width="2" stroke-linejoin="round"/>
<circle cx="30.5" cy="13.8595" r="4.91228" fill="#6AC47A" stroke="#6AC47A" stroke-width="2" stroke-linejoin="round"/>
<path d="M2.93658 69.598C6.45658 68.96 9.00858 67.2 10.2626 64.78C11.5386 67.156 14.1126 68.85 17.6766 69.488L18.7766 67.2C14.4206 66.562 12.0666 64.12 11.8026 61.48H17.8746V59.17H2.60658V61.48H8.67858C8.41458 64.12 6.06058 66.65 1.81458 67.31L2.93658 69.598ZM11.7146 73.184V68.718H8.81058V73.184H1.08858V75.538H19.4366V73.184H11.7146ZM35.3629 73.074H38.2669V57.63H35.3629V62.668H32.7229V64.978H35.3629V67.002H32.7229V69.312H35.3629V73.074ZM32.5029 59.764H28.5429V57.564H25.6389V59.764H21.3929V62.03H32.5029V59.764ZM25.0669 66.716C25.0669 65.616 25.9029 64.978 27.0909 64.978C28.2569 64.978 29.0929 65.616 29.0929 66.716C29.0929 67.86 28.2569 68.476 27.0909 68.476C25.9029 68.476 25.0669 67.86 25.0669 66.716ZM31.8209 66.716C31.8209 64.384 29.8409 62.756 27.0909 62.756C24.3189 62.756 22.3389 64.384 22.3389 66.716C22.3389 69.07 24.3189 70.72 27.0909 70.72C29.8409 70.72 31.8209 69.07 31.8209 66.716ZM27.7949 75.23V71.82H24.8909V77.54H38.7069V75.23H27.7949ZM55.6011 69.51H58.5051V57.63H55.6011V61.326H51.9051V63.68H55.6011V69.51ZM53.7531 66.584C50.5411 65.55 49.2211 63.086 49.2211 60.358V58.686H46.2731V60.49C46.2731 63.284 44.8431 66.034 41.3891 67.134L42.9071 69.466C45.3051 68.652 46.9111 67.024 47.8131 64.956C48.6711 66.76 50.1011 68.146 52.2351 68.872L53.7531 66.584ZM51.6631 75.67C49.0011 75.67 47.6151 75.12 47.6151 73.976C47.6151 72.81 49.0011 72.26 51.6631 72.26C54.3031 72.26 55.6891 72.81 55.6891 73.976C55.6891 75.12 54.3031 75.67 51.6631 75.67ZM51.6631 70.016C47.3511 70.016 44.7111 71.468 44.7111 73.976C44.7111 76.44 47.3511 77.892 51.6631 77.892C55.9531 77.892 58.5931 76.44 58.5931 73.976C58.5931 71.468 55.9531 70.016 51.6631 70.016Z" fill="#464646"/>
</svg>
